<svg xmlns="http://www.w3.org/2000/svg" width="100" height="100"><linearGradient id="prefix__a" gradientUnits="userSpaceOnUse" x1="369.264" y1="-335.738" x2="362.27" y2="-323.87" gradientTransform="matrix(1 0 0 -1 -294 -250)"><stop offset="0" stop-opacity="0"/><stop offset="1"/></linearGradient><path class="prefix__st0" opacity=".15" fill="url(#prefix__a)" d="M44.088 90.575l45.49-26.707L100 69.977 55.645 96.942l-11.557-6.367"/><path class="prefix__st8" d="M93.94 64.43l-.011 3.28c0 .59-.39 1.18-1.17 1.63L52.94 92.37l-.011.01c-1.569.9-4.12.9-5.699 0-.011 0-.011 0-.011-.01L7.13 69.34c-.8-.46-1.189-1.06-1.189-1.66l.01-3.27c0-.59.39-1.19 1.17-1.64l39.83-23.03c1.569-.91 4.13-.91 5.71 0l40.08 23.03c.799.46 1.199 1.06 1.199 1.66z" fill="#d0dee2"/><path class="prefix__st6" d="M47.227 89.098L7.139 66.063c-.795-.456-1.191-1.056-1.189-1.655l-.01 3.274c-.003.6.395 1.199 1.188 1.655l40.088 23.036.01.005v-3.28z" opacity=".1"/><path class="prefix__st1" d="M47.227 89.098v3.28c1.587.904 4.134.903 5.7-.001l.009-.005v-3.271c-1.569.907-4.124.907-5.709-.003z" opacity=".12"/><path class="prefix__st7" d="M92.77 66.063L52.936 89.102v3.271l39.825-23.035c.778-.451 1.167-1.04 1.169-1.632l.01-3.273c-.002.589-.392 1.178-1.17 1.63z" opacity=".2"/><g><linearGradient id="prefix__b" gradientUnits="userSpaceOnUse" x1="69.059" y1="84.163" x2="52.048" y2="55.297"><stop offset="0" stop-opacity="0"/><stop offset="1"/></linearGradient><path class="prefix__st5" opacity=".15" fill="url(#prefix__b)" d="M64.619 54.099L31.546 73.348l27.171 15.68 33.075-19.131z"/><path class="prefix__stshockcolor" d="M76.01 58.22l-.02 4.89c-.01 3.83-2.521 7.65-7.55 10.57-10.12 5.891-26.591 5.88-36.771 0-5.13-2.96-7.689-6.84-7.68-10.72l.02-4.64c0 .04 0 .08.01.12-.01-.1-.01-.2-.01-.3v-.05c0-3.84 2.521-7.67 7.55-10.6 10.12-5.88 26.58-5.88 36.771 0 5.13 2.96 7.69 6.85 7.68 10.73z" data-st="fill:#BED276;;" fill="#bed276"/><path class="prefix__st2" d="M76.008 58.216l-.014 4.891c-.012 3.83-2.527 7.654-7.554 10.575-10.123 5.883-26.587 5.879-36.771 0-5.128-2.961-7.688-6.845-7.678-10.724l.014-4.891c-.011 3.878 2.551 7.763 7.678 10.724 10.184 5.879 26.647 5.883 36.771-.001 5.026-2.919 7.543-6.744 7.554-10.574" opacity=".15"/><path class="prefix__st3" fill="#ebeae9" d="M60.602 47.641l-14.177 9.4-7.944-3.609-5.984 4.055-.01 3.261 14.728 6.967 20.168-13.378.01-3.26z"/><path class="prefix__st2" opacity=".15" d="M47.224 64.454l-.009 3.261-14.728-6.967.01-3.261z"/><path class="prefix__st7" opacity=".2" d="M67.393 51.077l-.01 3.26-20.168 13.378.009-3.261z"/></g></svg>