<svg class="prefix__icon" viewBox="0 0 1024 1024" xmlns="http://www.w3.org/2000/svg" width="200" height="200"><path d="M517.419 240.81a276.608 272.256 0 00-276.566 272.257A276.608 272.256 0 00517.42 785.28a276.608 272.256 0 00276.65-272.213 276.608 272.256 0 00-276.65-272.214zm79.36 81.75a99.37 97.792 0 0199.413 97.835 99.37 97.792 0 01-99.413 97.749 99.37 97.792 0 01-99.371-97.707 99.37 97.792 0 0199.328-97.877zM729.557 192.555a99.37 97.792 0 10198.742 0 99.37 97.792 0 10-198.742 0z" fill="#42A5F5"/></svg>