<svg class="prefix__icon" viewBox="0 0 1024 1024" xmlns="http://www.w3.org/2000/svg"><path d="M512 78.933c-11.52 0-23.467 2.987-33.28 8.534L161.28 270.933C140.8 282.88 128 305.067 128 328.96v366.08c0 23.893 12.8 46.08 33.28 58.027l83.2 47.786c40.533 19.627 54.187 20.054 72.96 20.054 59.733 0 94.293-36.267 94.293-99.414V360.107c0-5.12-4.266-9.387-9.386-9.387h-39.68c-5.547 0-9.814 4.267-9.814 9.387v361.386c0 28.16-29.013 55.894-75.52 32.427L189.867 704a11.093 11.093 0 01-4.694-8.96V328.96c0-3.84 1.707-7.253 4.694-8.96l317.44-183.04c2.56-1.707 6.826-1.707 9.386 0L834.133 320c2.987 1.707 4.694 5.12 4.694 8.96v366.08c0 3.413-1.707 6.827-4.694 8.96l-317.44 183.04c-2.56 1.707-6.826 1.707-9.813 0l-80.213-48.64c-3.414-1.28-6.827-1.707-8.96-.427-22.614 12.8-26.88 15.36-47.787 21.76-5.12 1.707-13.227 4.694 2.987 13.654l105.813 62.72c10.24 5.973 21.333 8.96 33.28 8.96s23.04-2.987 33.28-8.96l317.44-183.04C883.2 741.12 896 718.933 896 695.04V328.96c0-23.893-12.8-46.08-33.28-58.027L545.28 87.467c-9.813-5.547-21.333-8.534-33.28-8.534m85.333 262.4c-90.453 0-144.64 37.974-144.64 101.974 0 68.693 53.76 88.746 140.8 97.28 103.68 10.24 111.787 25.6 111.787 46.08 0 35.413-28.587 50.346-95.147 50.346-84.48 0-102.4-20.906-108.8-62.72a9.643 9.643 0 00-9.386-7.68h-40.96c-5.12 0-8.96 3.84-8.96 9.387 0 52.907 29.013 116.907 168.106 116.907 100.267 0 157.867-39.68 157.867-108.8 0-68.694-46.08-86.614-143.787-99.84-98.56-12.8-108.373-19.627-108.373-42.667 0-19.2 8.533-44.8 81.493-44.8 64 0 89.174 14.08 98.987 58.027.853 4.266 4.693 7.253 8.96 7.253h41.387c2.133 0 4.693-.853 6.4-2.987 1.706-1.706 2.986-4.266 2.133-6.826-5.973-75.947-56.32-110.934-157.867-110.934z" fill="#8BC34A"/></svg>