<svg xmlns="http://www.w3.org/2000/svg" width="100" height="100"><linearGradient id="prefix__a" gradientUnits="userSpaceOnUse" x1="957.263" y1="-1026.739" x2="950.269" y2="-1014.871" gradientTransform="matrix(1 0 0 -1 -882 -941)"><stop offset="0" stop-opacity="0"/><stop offset="1"/></linearGradient><path class="prefix__st0" opacity=".15" fill="url(#prefix__a)" d="M44.088 90.575l45.49-26.707L100 69.977 55.645 96.941l-11.557-6.366"/><path class="prefix__st8" d="M93.939 64.43l-.01 3.28c0 .59-.392 1.181-1.172 1.63L52.939 92.37l-.01.01c-1.57.899-4.122.899-5.701 0-.011 0-.011 0-.011-.01L7.13 69.34c-.8-.46-1.189-1.061-1.189-1.66l.01-3.27c0-.59.39-1.189 1.17-1.641l39.83-23.029c1.569-.91 4.13-.91 5.71 0l40.08 23.029c.799.461 1.198 1.061 1.198 1.661z" fill="#d0dee2"/><path class="prefix__st10" d="M47.227 89.098L7.139 66.063c-.795-.455-1.191-1.056-1.189-1.653l-.01 3.272c-.003.602.395 1.199 1.188 1.655l40.088 23.036.01.005v-.005l.001-3.275z" opacity=".1"/><path class="prefix__st5" d="M47.227 89.098v3.28c1.587.904 4.134.903 5.7-.001l.009-.005v-3.271c-1.569.907-4.124.907-5.709-.003z" opacity=".12"/><path class="prefix__st3" d="M92.77 66.063L52.936 89.102v3.271l39.826-23.035c.777-.451 1.166-1.04 1.168-1.632l.01-3.272c-.002.587-.392 1.177-1.17 1.629z" opacity=".2"/><linearGradient id="prefix__b" gradientUnits="userSpaceOnUse" x1="641.09" y1="757.108" x2="633.45" y2="750.776" gradientTransform="translate(-588 -691)"><stop offset="0" stop-opacity="0"/><stop offset="1"/></linearGradient><path class="prefix__st7" opacity=".15" fill="url(#prefix__b)" d="M45.564 57.568l-8.793 5.112 30.982 17.886 8.795-5.11z"/><path class="prefix__stshockcolor" d="M39.138 57.477l8.795-5.109c-1.457.847-2.361 2.646-2.368 5.201l-8.794 5.111c.006-2.556.91-4.356 2.367-5.203z" data-st="fill:#75A2D8;;" fill="#75a2d8"/><path class="prefix__st9" d="M39.138 57.477l8.795-5.109c-1.457.847-2.361 2.646-2.368 5.201l-8.794 5.111c.006-2.556.91-4.356 2.367-5.203z" opacity=".25"/><path class="prefix__stshockcolor" d="M44.919 54.646c6.106 3.524 11.052 12.088 11.03 19.104l-.736-.425-2.218-1.28c.015-5.144-3.611-11.423-8.086-14.006-4.481-2.587-8.124-.503-8.139 4.64l-2.211-1.277-.743-.428c.02-7.019 4.996-9.854 11.103-6.328z" data-st="fill:#75A2D8;;" fill="#75a2d8"/><path class="prefix__st4" d="M44.938 47.872c9.367 5.407 16.943 18.524 16.914 29.288l-.738-.426-2.952-1.707.735.427c.025-8.888-6.229-19.726-13.967-24.195-7.741-4.469-14.035-.875-14.061 8.013l.737.424-2.948-1.7-.736-.427c.029-10.763 7.648-15.105 17.016-9.697z" fill="#f7c90b"/><path class="prefix__st1" d="M44.929 51.259c7.74 4.47 13.994 15.308 13.969 24.195l-3.687-2.127.736.425c.021-7.018-4.925-15.58-11.03-19.105-6.107-3.525-11.083-.69-11.103 6.328l.743.428-3.691-2.131c.028-8.888 6.322-12.482 14.063-8.013z" fill="#bcbe2c"/><path class="prefix__st2" d="M44.948 44.478c11 6.351 19.887 21.745 19.851 34.383l-3.686-2.127.738.427c.028-10.765-7.547-23.88-16.915-29.288-9.368-5.408-16.987-1.066-17.018 9.697l.736.426-3.69-2.131c.038-12.641 8.983-17.739 19.984-11.387z" fill="#f1a21d"/><g><path class="prefix__st12" fill="#de7047" d="M64.799 78.861v-.002l-.736-.423zM25.703 56.289l-.736-.425z"/><path class="prefix__st12" d="M76.55 75.46l-8.8 5.11-2.95-1.711c.03-12.641-8.85-28.029-19.85-34.379S25 43.22 24.97 55.859l-2.95-1.699c.02-7.21 2.57-12.27 6.67-14.66l8.79-5.11c4.16-2.42 9.92-2.08 16.27 1.59 12.63 7.29 22.84 24.97 22.8 39.48z" fill="#de7047"/></g><path class="prefix__st6" d="M28.688 39.498l8.794-5.111c4.158-2.416 9.915-2.075 16.27 1.593l-8.795 5.11c-6.353-3.668-12.111-4.008-16.269-1.592z" opacity=".1" fill="#fff"/><path class="prefix__st13" d="M44.957 41.09l8.795-5.11c12.627 7.29 22.837 24.967 22.796 39.476l-8.795 5.11c.042-14.507-10.169-32.186-22.796-39.476z" opacity=".15"/></svg>