<svg class="prefix__icon" width="200" height="200" viewBox="0 0 1024 1024" xmlns="http://www.w3.org/2000/svg"><path  d="M912.213 154.027A85.333 85.333 0 00853.333 128a85.333 85.333 0 00-33.28 6.827L111.787 441.6a42.667 42.667 0 00-26.454 42.667V512a42.667 42.667 0 0029.44 42.667l183.894 61.44 55.466 187.306a75.947 75.947 0 0056.32 53.334 62.72 62.72 0 0015.36 0 73.813 73.813 0 0050.774-20.48l67.84-64 131.413 103.68a85.333 85.333 0 0090.027 9.386l14.08-7.253a88.32 88.32 0 0046.506-62.72l112.214-580.267a90.027 90.027 0 00-26.454-81.066zM763.733 805.12a25.173 25.173 0 01-12.8 17.493l-14.08 7.254a19.627 19.627 0 01-8.96 2.133 19.627 19.627 0 01-12.373-4.693l-160.427-128a20.907 20.907 0 00-27.733 0l-94.72 89.173a11.093 11.093 0 01-5.973 2.133V640a21.76 21.76 0 016.826-15.787c136.107-128 217.6-199.68 266.24-240.64a15.787 15.787 0 005.12-11.093 13.653 13.653 0 00-4.266-11.093 14.933 14.933 0 00-17.92-4.267l-322.56 203.52a21.333 21.333 0 01-18.347 0l-192.427-65.707L843.52 193.707a16.64 16.64 0 017.68 0 22.187 22.187 0 0116.213 7.68 26.88 26.88 0 016.827 23.466z"/></svg>